<mxfile host="app.diagrams.net" agent="Mozilla/5.0 (Windows NT 10.0; Win64; x64; rv:136.0) Gecko/20100101 Firefox/136.0" version="26.1.1">
  <diagram name="Page-1" id="cr6sK2uJSlQNk7SkCs2m">
    <mxGraphModel dx="347" dy="794" grid="1" gridSize="10" guides="1" tooltips="1" connect="1" arrows="1" fold="1" page="1" pageScale="1" pageWidth="850" pageHeight="1100" math="0" shadow="0">
      <root>
        <mxCell id="0" />
        <mxCell id="1" parent="0" />
        <mxCell id="F1__5EMtnfEj0do6GKll-44" value="" style="group" vertex="1" connectable="0" parent="1">
          <mxGeometry x="1000" y="139" width="290" height="260" as="geometry" />
        </mxCell>
        <mxCell id="F1__5EMtnfEj0do6GKll-42" value="" style="shape=note;whiteSpace=wrap;html=1;backgroundOutline=1;darkOpacity=0.05;" vertex="1" parent="F1__5EMtnfEj0do6GKll-44">
          <mxGeometry width="219.3853427895981" height="260" as="geometry" />
        </mxCell>
        <mxCell id="F1__5EMtnfEj0do6GKll-33" value="" style="rounded=0;whiteSpace=wrap;html=1;fillColor=#000000;" vertex="1" parent="F1__5EMtnfEj0do6GKll-44">
          <mxGeometry x="25.37" y="50" width="164.54" height="190" as="geometry" />
        </mxCell>
        <mxCell id="F1__5EMtnfEj0do6GKll-34" value="" style="rounded=0;whiteSpace=wrap;html=1;strokeColor=none;" vertex="1" parent="F1__5EMtnfEj0do6GKll-44">
          <mxGeometry x="41.13475177304964" y="88.02083333333334" width="82.26950354609929" height="13.541666666666668" as="geometry" />
        </mxCell>
        <mxCell id="F1__5EMtnfEj0do6GKll-35" value="" style="rounded=0;whiteSpace=wrap;html=1;strokeColor=none;" vertex="1" parent="F1__5EMtnfEj0do6GKll-44">
          <mxGeometry x="41.13475177304964" y="124.58333333333334" width="54.846335697399525" height="13.541666666666668" as="geometry" />
        </mxCell>
        <mxCell id="F1__5EMtnfEj0do6GKll-36" value="" style="rounded=0;whiteSpace=wrap;html=1;strokeColor=none;" vertex="1" parent="F1__5EMtnfEj0do6GKll-44">
          <mxGeometry x="41.13475177304964" y="162.5" width="54.846335697399525" height="13.541666666666668" as="geometry" />
        </mxCell>
        <mxCell id="F1__5EMtnfEj0do6GKll-37" value="" style="rounded=0;whiteSpace=wrap;html=1;strokeColor=none;" vertex="1" parent="F1__5EMtnfEj0do6GKll-44">
          <mxGeometry x="41.13475177304964" y="199.0625" width="68.5579196217494" height="13.541666666666668" as="geometry" />
        </mxCell>
        <mxCell id="F1__5EMtnfEj0do6GKll-39" value="" style="shape=flexArrow;endArrow=classic;html=1;rounded=0;endWidth=40;endSize=8.32;width=28.8;arcSize=0;shadow=1;fillColor=#f5f5f5;strokeColor=#666666;" edge="1" parent="F1__5EMtnfEj0do6GKll-44">
          <mxGeometry width="50" height="50" relative="1" as="geometry">
            <mxPoint x="290" y="148.63333333333333" as="sourcePoint" />
            <mxPoint x="137.1158392434988" y="148.95833333333334" as="targetPoint" />
            <Array as="points">
              <mxPoint x="205.67375886524823" y="148.95833333333334" />
            </Array>
          </mxGeometry>
        </mxCell>
        <mxCell id="F1__5EMtnfEj0do6GKll-43" value="&lt;font style=&quot;font-size: 16px;&quot;&gt;REQUIREMENTS&lt;/font&gt;" style="text;html=1;align=center;verticalAlign=middle;whiteSpace=wrap;rounded=0;" vertex="1" parent="F1__5EMtnfEj0do6GKll-44">
          <mxGeometry x="41.1389598108747" y="9.371666666666668" width="82.26950354609929" height="40.625" as="geometry" />
        </mxCell>
        <mxCell id="F1__5EMtnfEj0do6GKll-45" value="" style="group;shadow=0;" vertex="1" connectable="0" parent="1">
          <mxGeometry x="720" y="110" width="225" height="318" as="geometry" />
        </mxCell>
        <mxCell id="F1__5EMtnfEj0do6GKll-3" value="" style="group" vertex="1" connectable="0" parent="F1__5EMtnfEj0do6GKll-45">
          <mxGeometry x="65" width="80" height="80" as="geometry" />
        </mxCell>
        <mxCell id="F1__5EMtnfEj0do6GKll-1" value="" style="ellipse;whiteSpace=wrap;html=1;aspect=fixed;fillColor=none;" vertex="1" parent="F1__5EMtnfEj0do6GKll-3">
          <mxGeometry width="80" height="80" as="geometry" />
        </mxCell>
        <mxCell id="F1__5EMtnfEj0do6GKll-2" value="" style="ellipse;whiteSpace=wrap;html=1;aspect=fixed;fillColor=#000000;" vertex="1" parent="F1__5EMtnfEj0do6GKll-3">
          <mxGeometry x="10" y="10" width="60" height="60" as="geometry" />
        </mxCell>
        <mxCell id="F1__5EMtnfEj0do6GKll-4" value="" style="ellipse;whiteSpace=wrap;html=1;aspect=fixed;fillColor=#000000;" vertex="1" parent="F1__5EMtnfEj0do6GKll-45">
          <mxGeometry x="75" y="98" width="60" height="60" as="geometry" />
        </mxCell>
        <mxCell id="F1__5EMtnfEj0do6GKll-5" value="" style="endArrow=classic;html=1;rounded=0;exitX=0;exitY=0.5;exitDx=0;exitDy=0;entryX=1;entryY=0.5;entryDx=0;entryDy=0;strokeWidth=5;" edge="1" parent="F1__5EMtnfEj0do6GKll-45" source="F1__5EMtnfEj0do6GKll-6" target="F1__5EMtnfEj0do6GKll-4">
          <mxGeometry width="50" height="50" relative="1" as="geometry">
            <mxPoint x="35" y="238" as="sourcePoint" />
            <mxPoint x="85" y="188" as="targetPoint" />
          </mxGeometry>
        </mxCell>
        <mxCell id="F1__5EMtnfEj0do6GKll-6" value="" style="ellipse;whiteSpace=wrap;html=1;aspect=fixed;fillColor=#000000;" vertex="1" parent="F1__5EMtnfEj0do6GKll-45">
          <mxGeometry x="165" y="98" width="60" height="60" as="geometry" />
        </mxCell>
        <mxCell id="F1__5EMtnfEj0do6GKll-7" value="" style="endArrow=classic;html=1;rounded=0;exitX=1;exitY=0.5;exitDx=0;exitDy=0;entryX=0.5;entryY=0;entryDx=0;entryDy=0;strokeWidth=5;" edge="1" parent="F1__5EMtnfEj0do6GKll-45" target="F1__5EMtnfEj0do6GKll-6" source="F1__5EMtnfEj0do6GKll-1">
          <mxGeometry width="50" height="50" relative="1" as="geometry">
            <mxPoint x="170" y="80" as="sourcePoint" />
            <mxPoint x="155" y="230" as="targetPoint" />
            <Array as="points">
              <mxPoint x="195" y="40" />
            </Array>
          </mxGeometry>
        </mxCell>
        <mxCell id="F1__5EMtnfEj0do6GKll-8" value="" style="ellipse;whiteSpace=wrap;html=1;aspect=fixed;fillColor=#000000;" vertex="1" parent="F1__5EMtnfEj0do6GKll-45">
          <mxGeometry y="158" width="60" height="60" as="geometry" />
        </mxCell>
        <mxCell id="F1__5EMtnfEj0do6GKll-9" value="" style="endArrow=classic;html=1;rounded=0;strokeWidth=5;exitX=-0.015;exitY=0.408;exitDx=0;exitDy=0;exitPerimeter=0;entryX=0.5;entryY=0;entryDx=0;entryDy=0;" edge="1" parent="F1__5EMtnfEj0do6GKll-45" target="F1__5EMtnfEj0do6GKll-8">
          <mxGeometry width="50" height="50" relative="1" as="geometry">
            <mxPoint x="64.79999999999995" y="39.639999999999986" as="sourcePoint" />
            <mxPoint x="30" y="190" as="targetPoint" />
            <Array as="points">
              <mxPoint x="31" y="40" />
            </Array>
          </mxGeometry>
        </mxCell>
        <mxCell id="F1__5EMtnfEj0do6GKll-10" value="" style="ellipse;whiteSpace=wrap;html=1;aspect=fixed;fillColor=none;" vertex="1" parent="F1__5EMtnfEj0do6GKll-45">
          <mxGeometry x="65" y="238" width="80" height="80" as="geometry" />
        </mxCell>
        <mxCell id="F1__5EMtnfEj0do6GKll-11" value="" style="endArrow=classic;html=1;rounded=0;strokeWidth=5;exitX=1;exitY=0.5;exitDx=0;exitDy=0;entryX=0.5;entryY=0;entryDx=0;entryDy=0;" edge="1" parent="F1__5EMtnfEj0do6GKll-45" source="F1__5EMtnfEj0do6GKll-8" target="F1__5EMtnfEj0do6GKll-10">
          <mxGeometry width="50" height="50" relative="1" as="geometry">
            <mxPoint x="69.79999999999995" y="7.639999999999986" as="sourcePoint" />
            <mxPoint x="35" y="168" as="targetPoint" />
            <Array as="points">
              <mxPoint x="105" y="188" />
            </Array>
          </mxGeometry>
        </mxCell>
        <mxCell id="F1__5EMtnfEj0do6GKll-12" value="" style="endArrow=none;html=1;rounded=0;strokeWidth=5;entryX=0.5;entryY=1;entryDx=0;entryDy=0;" edge="1" parent="F1__5EMtnfEj0do6GKll-45" target="F1__5EMtnfEj0do6GKll-4">
          <mxGeometry width="50" height="50" relative="1" as="geometry">
            <mxPoint x="105" y="188" as="sourcePoint" />
            <mxPoint x="85" y="188" as="targetPoint" />
            <Array as="points" />
          </mxGeometry>
        </mxCell>
        <mxCell id="F1__5EMtnfEj0do6GKll-49" value="" style="edgeStyle=orthogonalEdgeStyle;rounded=0;orthogonalLoop=1;jettySize=auto;html=1;" edge="1" parent="F1__5EMtnfEj0do6GKll-45" source="F1__5EMtnfEj0do6GKll-16" target="F1__5EMtnfEj0do6GKll-4">
          <mxGeometry relative="1" as="geometry" />
        </mxCell>
        <mxCell id="F1__5EMtnfEj0do6GKll-16" value="" style="ellipse;whiteSpace=wrap;html=1;aspect=fixed;fillColor=none;" vertex="1" parent="F1__5EMtnfEj0do6GKll-45">
          <mxGeometry x="75" y="248" width="60" height="60" as="geometry" />
        </mxCell>
        <mxCell id="F1__5EMtnfEj0do6GKll-46" value="" style="group;shadow=1;" vertex="1" connectable="0" parent="1">
          <mxGeometry x="230" y="118" width="420" height="302" as="geometry" />
        </mxCell>
        <mxCell id="F1__5EMtnfEj0do6GKll-17" value="" style="rounded=1;whiteSpace=wrap;html=1;fillColor=#000000;shadow=1;" vertex="1" parent="F1__5EMtnfEj0do6GKll-46">
          <mxGeometry x="140" width="120" height="60" as="geometry" />
        </mxCell>
        <mxCell id="F1__5EMtnfEj0do6GKll-18" value="" style="rounded=0;whiteSpace=wrap;html=1;shadow=1;" vertex="1" parent="F1__5EMtnfEj0do6GKll-46">
          <mxGeometry x="300" y="172" width="120" height="60" as="geometry" />
        </mxCell>
        <mxCell id="F1__5EMtnfEj0do6GKll-19" value="" style="rounded=1;whiteSpace=wrap;html=1;shadow=1;" vertex="1" parent="F1__5EMtnfEj0do6GKll-46">
          <mxGeometry x="140" y="92" width="120" height="60" as="geometry" />
        </mxCell>
        <mxCell id="F1__5EMtnfEj0do6GKll-20" value="" style="rounded=1;whiteSpace=wrap;html=1;shadow=1;" vertex="1" parent="F1__5EMtnfEj0do6GKll-46">
          <mxGeometry y="92" width="120" height="60" as="geometry" />
        </mxCell>
        <mxCell id="F1__5EMtnfEj0do6GKll-21" value="" style="rounded=1;whiteSpace=wrap;html=1;shadow=1;" vertex="1" parent="F1__5EMtnfEj0do6GKll-46">
          <mxGeometry x="280" y="92" width="120" height="60" as="geometry" />
        </mxCell>
        <mxCell id="F1__5EMtnfEj0do6GKll-23" value="" style="rounded=0;whiteSpace=wrap;html=1;shadow=1;" vertex="1" parent="F1__5EMtnfEj0do6GKll-46">
          <mxGeometry x="300" y="242" width="120" height="60" as="geometry" />
        </mxCell>
        <mxCell id="F1__5EMtnfEj0do6GKll-24" value="" style="rounded=0;whiteSpace=wrap;html=1;shadow=1;" vertex="1" parent="F1__5EMtnfEj0do6GKll-46">
          <mxGeometry x="20" y="172" width="120" height="60" as="geometry" />
        </mxCell>
        <mxCell id="F1__5EMtnfEj0do6GKll-25" value="" style="endArrow=none;html=1;rounded=0;exitX=0.5;exitY=1;exitDx=0;exitDy=0;entryX=0.5;entryY=0;entryDx=0;entryDy=0;shadow=1;" edge="1" parent="F1__5EMtnfEj0do6GKll-46" source="F1__5EMtnfEj0do6GKll-17" target="F1__5EMtnfEj0do6GKll-19">
          <mxGeometry width="50" height="50" relative="1" as="geometry">
            <mxPoint x="400" y="92" as="sourcePoint" />
            <mxPoint x="450" y="42" as="targetPoint" />
          </mxGeometry>
        </mxCell>
        <mxCell id="F1__5EMtnfEj0do6GKll-26" value="" style="endArrow=none;html=1;rounded=0;entryX=0.5;entryY=0;entryDx=0;entryDy=0;shadow=1;" edge="1" parent="F1__5EMtnfEj0do6GKll-46" target="F1__5EMtnfEj0do6GKll-21">
          <mxGeometry width="50" height="50" relative="1" as="geometry">
            <mxPoint x="200" y="72" as="sourcePoint" />
            <mxPoint x="210" y="102" as="targetPoint" />
            <Array as="points">
              <mxPoint x="340" y="72" />
            </Array>
          </mxGeometry>
        </mxCell>
        <mxCell id="F1__5EMtnfEj0do6GKll-27" value="" style="endArrow=none;html=1;rounded=0;entryX=0.5;entryY=0;entryDx=0;entryDy=0;shadow=1;" edge="1" parent="F1__5EMtnfEj0do6GKll-46" target="F1__5EMtnfEj0do6GKll-20">
          <mxGeometry width="50" height="50" relative="1" as="geometry">
            <mxPoint x="200" y="72" as="sourcePoint" />
            <mxPoint x="350" y="102" as="targetPoint" />
            <Array as="points">
              <mxPoint x="60" y="72" />
            </Array>
          </mxGeometry>
        </mxCell>
        <mxCell id="F1__5EMtnfEj0do6GKll-28" value="" style="endArrow=none;html=1;rounded=0;entryX=0;entryY=0.25;entryDx=0;entryDy=0;shadow=1;" edge="1" parent="F1__5EMtnfEj0do6GKll-46" target="F1__5EMtnfEj0do6GKll-18">
          <mxGeometry width="50" height="50" relative="1" as="geometry">
            <mxPoint x="290" y="152" as="sourcePoint" />
            <mxPoint x="210" y="102" as="targetPoint" />
            <Array as="points">
              <mxPoint x="290" y="187" />
            </Array>
          </mxGeometry>
        </mxCell>
        <mxCell id="F1__5EMtnfEj0do6GKll-29" value="" style="endArrow=none;html=1;rounded=0;entryX=0;entryY=0.25;entryDx=0;entryDy=0;shadow=1;" edge="1" parent="F1__5EMtnfEj0do6GKll-46" target="F1__5EMtnfEj0do6GKll-23">
          <mxGeometry width="50" height="50" relative="1" as="geometry">
            <mxPoint x="290" y="184.5" as="sourcePoint" />
            <mxPoint x="300" y="219.5" as="targetPoint" />
            <Array as="points">
              <mxPoint x="290" y="257" />
            </Array>
          </mxGeometry>
        </mxCell>
        <mxCell id="F1__5EMtnfEj0do6GKll-30" value="" style="endArrow=none;html=1;rounded=0;entryX=0;entryY=0.25;entryDx=0;entryDy=0;shadow=1;" edge="1" parent="F1__5EMtnfEj0do6GKll-46">
          <mxGeometry width="50" height="50" relative="1" as="geometry">
            <mxPoint x="10" y="152" as="sourcePoint" />
            <mxPoint x="20" y="187" as="targetPoint" />
            <Array as="points">
              <mxPoint x="10" y="187" />
            </Array>
          </mxGeometry>
        </mxCell>
      </root>
    </mxGraphModel>
  </diagram>
</mxfile>
